<!-- icon666.com - MILLIONS vector ICONS FREE --><svg id="Layer_1" enable-background="new 0 0 510 510" viewBox="0 0 510 510" xmlns="http://www.w3.org/2000/svg"><path d="m450 156.973v-126.973h30v-30h-30-90-30v30h30v126.973l-45 30v75.872 55.444l-45 11.249-45-11.249v-33.289h-30v-61.287l30-30v-103.713-7.5-22.5c0-33.084-26.916-60-60-60h-90c-33.084 0-60 26.916-60 60v15 118.713l30 30v61.287h-30v90h30v135h150v-135h30v-25.789l45 11.251 45-11.251v35.944 124.845h180v-52.845-122.31-147.872zm-375-126.973h90c16.542 0 30 13.458 30 30v22.5 7.5c0 16.542-13.458 30-30 30h-23.072c5.123-8.833 8.072-19.075 8.072-30v-30h-105c0-16.542 13.458-30 30-30zm-30 151.287v-91.287h75c0 16.542-13.458 30-30 30h-15v30h15c8.271 0 15 6.729 15 15v15h30v-15c0-5.259-.915-10.305-2.58-15h32.58c10.925 0 21.168-2.949 30-8.072v39.359l-30 30v73.713h-90v-73.713zm120 298.713h-90v-105h90zm30-135h-150v-30h150zm225-315v30h-30v-30zm-75 277.155 120 48v57.689l-120-48zm120 172.845h-120v-82.845l120 48zm-120-205.155v-71.817l45-30v-83.028h30v83.027l45 30v119.817z"></path></svg>