<!-- icon666.com - MILLIONS vector ICONS FREE --><svg id="Layer_1" enable-background="new 0 0 74 74" viewBox="0 0 74 74" xmlns="http://www.w3.org/2000/svg"><g><path d="m69.44 41.49c-.07-.13-.19-.22-.32-.25l-8.04-1.93c-.27-.06-.54.1-.6.37l-.1.41c-.88-1.45-1.66-3.93-2.31-6.02-.37-1.18-.69-2.21-.98-2.93-3.85-9.32-15.23-15.14-23.49-14.78-.37-.24-.72-.47-1.06-.68-.01-.01-.02-.01-.03-.02-2.29-1.43-3.87-2.16-4.91-1.85-.41.13-.73.41-.9.83-.54 1.26-.4 2.64.17 4.04-6.64 5.12-7.35 13.2-5.69 17.39.06.16.21.53.49.79-1.79 1.71-4.94 4.34-7.7 5.67l-.41-1.7c-.03-.13-.11-.24-.23-.31-.11-.07-.25-.09-.38-.06l-8.07 1.94c-.14.03-.26.12-.32.25-.07.13-.08.27-.03.41l6.1 16.86c.07.2.26.33.47.33.04 0 .08 0 .12-.01l6.1-1.47c.13-.03.24-.11.31-.23.07-.11.09-.25.06-.38l-.12-.49c4.08-1.08 12.85-3.36 16.39-4.05 2.45-.47 6.61-1.93 10.81-3.78.63-.19 1.29-.41 1.94-.67 2.41 5.52 6.45 6.43 8.83 6.43.43 0 .81-.03 1.11-.07l-.35 1.45c-.03.13-.01.27.06.38s.18.19.31.23l6.1 1.47c.04.01.08.01.12.01.21 0 .4-.13.47-.33l6.1-16.87c.06-.11.05-.26-.02-.38zm-37.71-25.11c-.03.12-.08.24-.14.33-.47.63-1.68.57-2.65-.14-.65-.47-1.04-1.16-1.06-1.79.74-.2 2.46.74 3.85 1.6zm-4.45 3.24c.86 1.59 2.22 3.16 3.76 4.56-.18.03-.35.07-.53.13-2.48.86-4.4 4.83-5.95 8.03-.29.6-.62 1.28-.94 1.9-.01-.5-.11-.99-.27-1.42-.41-1.14-1.17-1.92-1.95-2.03.22-3.68 1.87-7.99 5.88-11.17zm-5.17 16.15c-.01-.02-.02-.04-.03-.07-.42-1.06-.67-2.4-.69-3.88.33.13.77.6 1.03 1.33.29.81.34 1.9-.31 2.62zm-10.69 23.39-5.76-15.92 7.01-1.69 3.82 15.88v.01.01l.11.46zm33.02-10.24c-4.2 1.84-8.28 3.27-10.66 3.73-3.57.69-12.33 2.97-16.44 4.06l-3.17-13.18c3.46-1.61 7.56-5.26 9.06-6.85 0 0 .01-.01.01-.01.62-.64 1.27-1.92 2.22-3.9 1.46-3.03 3.28-6.8 5.37-7.52.53-.18 1.06-.15 1.6.11.14.11.27.21.41.32-1.18.16-2.31.88-3.22 2.11-.16.22-.11.54.11.7.09.07.19.1.29.1.15 0 .31-.07.4-.21 1.08-1.47 2.51-2.05 3.86-1.58 2.26 1.83 3 2.87 4.48 4.99.26.38.51.76.75 1.15-2.05.37-2.87 1.4-3.17 2.25-.56 1.56.2 3.67 1.93 5.36 2.03 1.99 5.6 3.57 9.54 2.04 1.11-.51 2.36-.96 3.41-1.23-2.08 1.83-2.08 3.96-2.08 4.86v.18c0 .16.07.3.19.39-1.47.9-3.19 1.63-4.89 2.13zm-1.02-6.81c-1.81-.3-3.37-1.21-4.45-2.26-1.46-1.42-2.12-3.11-1.69-4.31.33-.91 1.29-1.48 2.78-1.66 1.77 3.13 2.85 6.44 3.36 8.23zm9.85-.94c.07.02.15.03.19.07.04.03.11.08.09.3-.14 1.79-1.5 3.41-3.4 4.73v-.05c0-1.01-.01-3.35 3.12-5.05zm-5.62 7.63c3.44-1.53 6.65-4 6.91-7.18.05-.66-.25-1.02-.52-1.2-1.45-1.01-5.78.88-6.6 1.26-1.02.39-2.01.55-2.95.53-.48-1.74-1.65-5.5-3.69-9.06-.01-.03-.03-.06-.05-.09-.37-.64-.77-1.28-1.2-1.89-1.76-2.51-2.48-3.55-5.92-6.14-3.13-2.36-6.37-5.88-6.3-8.76.25.41.6.8 1.03 1.1.69.51 1.47.76 2.19.76.76 0 1.44-.28 1.86-.85.08-.11.13-.24.18-.37.22.14.42.27.59.38.01.01.02.01.03.01.69.46 1.42.95 2.17 1.46 4.29 2.9 9.63 6.5 14.02 7.16.02 0 .05.01.07.01.24 0 .46-.18.49-.43.04-.27-.15-.53-.42-.57-4.17-.62-9.4-4.15-13.61-7-.28-.19-.56-.38-.83-.56 7.76.34 17.59 5.76 21.05 14.15.28.68.61 1.73.95 2.84.82 2.64 1.75 5.59 2.96 7l-3.16 13.14c-1.23.27-6.38.86-9.25-5.7zm14.93 9.2-5.18-1.25 3.93-16.36 7.01 1.68z"></path><path d="m53.81 19.79c.15 0 .29-.07.39-.19l3.55-4.52c.17-.22.13-.53-.08-.7-.22-.17-.53-.13-.7.08l-3.55 4.52c-.17.22-.13.53.08.7.09.08.2.11.31.11z"></path><path d="m53.91 21.94c.08.19.27.29.46.29.07 0 .14-.01.2-.04 2.2-.99 4.38-2.03 6.49-3.1.25-.13.34-.43.22-.67-.13-.25-.43-.35-.67-.22-2.09 1.06-4.26 2.1-6.45 3.08-.25.11-.36.4-.25.66z"></path><path d="m17.21 25.4c.1.13.25.19.39.19.11 0 .22-.04.31-.11.22-.17.25-.49.08-.7l-3.55-4.52c-.17-.22-.48-.25-.7-.08s-.25.49-.08.7z"></path><path d="m10.35 24.88c2.13 1.08 4.31 2.12 6.49 3.1.07.03.14.04.2.04.19 0 .37-.11.46-.29.11-.25 0-.55-.25-.66-2.16-.97-4.33-2.01-6.45-3.08-.25-.12-.55-.03-.67.22-.13.25-.03.55.22.67z"></path></g></svg>