<!-- icon666.com - MILLIONS vector ICONS FREE --><svg id="Layer_5" enable-background="new 0 0 64 64" viewBox="0 0 64 64" xmlns="http://www.w3.org/2000/svg"><g><path d="m41.341 31.814 4.07-2.326c.519.899 1.479 1.512 2.589 1.512h15v-26h-15c-1.018 0-1.916.512-2.459 1.29l-3.643-3.123c-1.63-1.397-3.71-2.167-5.857-2.167h-18.041c-1.654 0-3 1.346-3 3 0 1.13.391 2.162 1.026 3h-7.026c-2.206 0-4 1.794-4 4 0 .732.212 1.409.556 2h-.556c-2.206 0-4 1.794-4 4s1.794 4 4 4h2.323l3.537 8.843-6.749 8.773c-2.006 2.607-3.111 5.855-3.111 9.146v.238c0 8.271 6.729 15 15 15h47v-2h-7v-24.238l3.232 3.878 1.536-1.28-5.768-6.922-5.768 6.922 1.536 1.28 3.232-3.878v24.238h-12v-16.238l3.232 3.878 1.536-1.28-5.768-6.922-5.768 6.922 1.536 1.28 3.232-3.878v16.238h-16.549c4.503-2.591 7.549-7.442 7.549-13v-.238c0-3.291-1.105-6.539-3.111-9.146l-4.32-5.616h13.306c1.564 0 3.108-.41 4.466-1.186zm5.659-23.814c0-.551.449-1 1-1h13v22h-13c-.551 0-1-.449-1-1zm-44 9c0-1.103.897-2 2-2h4 14v2.561l-4.572-.653-1.428 2.856-1.477-2.954-7.663 2.19h-2.86c-1.103 0-2-.897-2-2zm11.477 2.189 2.523 5.047 2.572-5.144 4.86.694-5.026 9.214h-6.729l-3.337-8.343zm14.523 28.573v.238c0 7.168-5.832 13-13 13s-13-5.832-13-13v-.238c0-2.852.958-5.667 2.696-7.926l6.796-8.836h7.016l6.796 8.835c1.738 2.26 2.696 5.075 2.696 7.927zm-7.81-17.855 1.81-3.319c.001 1.178.459 2.286 1.293 3.119l1.414-1.414c-.449-.449-.707-1.072-.707-1.707v-3.664l2.568-4.708-2.568-.367v-4.433c0-.635.258-1.258.707-1.707l-1.414-1.414c-.734.734-1.157 1.686-1.253 2.707h-14.04c-1.103 0-2-.897-2-2s.897-2 2-2h11 6.586l1.536 1.536c.944.944 2.199 1.464 3.535 1.464h2.343v-2h-2.343c-.79 0-1.563-.32-2.121-.878l-2.122-2.122h-.414-7c-1.654 0-3-1.346-3-3 0-.551.449-1 1-1h18.041c1.67 0 3.288.599 4.556 1.685l4.403 3.775v18.96l-4.651 2.658c-1.057.603-2.257.922-3.474.922h-14.844z"></path><path d="m13 44c0-1.654-1.346-3-3-3s-3 1.346-3 3 1.346 3 3 3 3-1.346 3-3zm-3 1c-.551 0-1-.449-1-1s.449-1 1-1 1 .449 1 1-.449 1-1 1z"></path><path d="m19 50c0 1.654 1.346 3 3 3s3-1.346 3-3-1.346-3-3-3-3 1.346-3 3zm3-1c.551 0 1 .449 1 1s-.449 1-1 1-1-.449-1-1 .449-1 1-1z"></path><path d="m6.566 46h18.868v2h-18.868z" transform="matrix(.53 -.848 .848 .53 -32.336 35.658)"></path></g></svg>