<!-- icon666.com - MILLIONS vector ICONS FREE --><svg id="Capa_1" enable-background="new 0 0 585.72 585.72" viewBox="0 0 585.72 585.72" xmlns="http://www.w3.org/2000/svg"><g><g><path d="m220.699 438.508c-10.65 0-19.321 8.666-19.321 19.316s8.666 19.316 19.321 19.316 19.321-8.666 19.321-19.316-8.67-19.316-19.321-19.316zm0 29.344c-5.53 0-10.027-4.498-10.027-10.023s4.498-10.023 10.027-10.023c5.53 0 10.027 4.498 10.027 10.023.001 5.525-4.497 10.023-10.027 10.023z"></path><path d="m303.563 428.113c-13.596-4.846-24.943 2.742-31.407 8.889-5.251-13.28-13.299-18.601-13.801-18.921-2.151-1.352-4.977-.725-6.371 1.413-1.385 2.137-.771 5.004 1.357 6.412.572.381 14.005 9.586 14.005 36.709 0 26.946-13.262 35.208-13.782 35.524-2.226 1.269-3.006 4.108-1.738 6.338.86 1.501 2.426 2.347 4.043 2.347.776 0 1.571-.195 2.295-.609.409-.232 5.762-3.439 10.599-11.445 5.734 5.46 15.966 13.429 26.932 13.424 2.811 0 5.678-.52 8.517-1.752 11.696-5.051 16.347-24.86 15.771-42.247-.231-7.175-2.117-30.998-16.42-36.082zm-26.936 35.036c10.176-4.647 21.365-7.091 33.251-7.328.423 2.732.725 5.622.827 8.685.102 3.071.019 6.092-.228 8.991-12.067.985-23.498-.581-34.069-4.684.135-1.807.205-3.698.219-5.664zm23.823-26.277c2.872 1.018 5.367 4.572 7.193 9.702-11.157.451-21.732 2.676-31.56 6.677-.237-2.068-.534-4.047-.906-5.901 3.392-4.042 13.647-14.613 25.273-10.478zm.084 61.043c-9.554 4.122-21.849-5.98-27.583-12.077.827-2.319 1.566-4.851 2.151-7.653 9.001 3.22 18.489 4.935 28.414 4.935 1.817 0 3.652-.065 5.497-.172-1.788 7.672-4.822 13.388-8.479 14.967z"></path><path d="m557.963 525.986c10.999-10.91 9.823-21.937 5.841-31.923-.042-.107-.07-.209-.121-.316-1.515-3.736-3.406-7.323-5.195-10.697-3.778-7.137-7.346-13.88-7.346-20.427 0-3.085.813-6.222 2.045-9.419h.581c9.061 0 17.248-3.508 23.057-9.879 6.547-7.179 9.721-17.564 8.713-28.414l-14.448-191.883c-.651-8.861-3.518-16.626-8.643-23.586 5.13-3.308 8.657-9.642 8.657-16.988 0-10.724-7.425-19.451-16.551-19.451h-99.861l129.47-129.47c1.817-1.817 1.817-4.754 0-6.57l-25.446-25.446c-1.817-1.817-4.754-1.817-6.57 0l-161.486 161.477h-16.816c-9.126 0-16.551 8.722-16.551 19.451 0 3.978 1.073 7.769 2.941 10.975l-40.115 40.115v-49.496c0-19.112-8.829-37.368-26.997-55.816-7.24-7.351-11.231-16.853-11.231-26.755v-16.04c9.433-2.128 16.51-10.539 16.51-20.608 0-11.668-9.488-21.161-21.156-21.161h-201.2c-.13 0-.251.023-.381.023l-42.179-42.174c-1.817-1.817-4.754-1.817-6.57 0l-25.445 25.445c-1.817 1.817-1.817 4.754 0 6.57l69.835 69.835c-.465 9.2-4.345 17.973-11.138 24.869-18.168 18.447-26.997 36.704-26.997 55.816v258.684c-3.415 1.32-6.357 3.294-8.452 6.157-4.019 5.474-5.613 12.174-5.018 19.163-7.941 1.171-12.276 4.707-14.535 7.788-9.465 12.89-5.627 32.587 9.121 46.834.725.697 1.529 1.31 2.314 1.942.163.167.339.302.53.446 2.165 1.682 4.568 3.104 7.17 4.303l-22.83 22.828c-1.817 1.817-1.817 4.754 0 6.57l25.445 25.45c.874.874 2.054 1.362 3.285 1.362s2.416-.488 3.285-1.362l29.539-29.539c2.212 2.128 4.558 4.103 7.179 5.725 10.172 6.305 21.454 9.53 31.23 9.53 8.183 0 15.306-2.254 19.846-6.854 4.526-4.586 6.766-12.114 6.338-20.692 5.344-.92 9.962-2.965 13.215-6.254.135-.139.251-.302.381-.446.009-.014.019-.023.028-.033 1.464-1.594 2.69-3.508 3.634-5.706 3.806.836 7.5 1.259 10.966 1.259 8.29 0 15.339-2.347 19.804-6.872 4.052-4.108 6.273-10.664 6.38-18.196 3.62.846 6.775 2.467 9.159 4.837 15.882 15.84 60.318 52.679 129.674 52.679 69.918 0 126.761-38.697 147.959-55.337 1.38-1.083 2.862-2.082 4.391-3.039l78.942 78.942c.874.874 2.054 1.362 3.285 1.362s2.416-.488 3.285-1.362l25.445-25.45c1.817-1.817 1.817-4.754 0-6.57zm-43.111-43.112 40.984 16.361c2.676 7.495 2.249 13.587-4.442 20.18zm17.438-92.798c-23.41 2.049-49.715 23.433-57.93 30.608-1.106-.655-2.1-1.399-3.132-2.114.446-3.308.739-6.724.739-10.297 0-6.91-.86-13.977-2.374-20.854 5.595-22.862 18.549-39.366 31.04-39.366 13.02-.002 26.616 18.422 31.657 42.023zm-35.519 42.763c-4.503-3.364-9.247-5.892-13.327-7.723 12.007-10.041 32.661-24.223 49.375-25.742zm16.133 34.427h29.372c1.111 6.891 4.424 13.359 7.746 19.641l-38.07-15.199c.413-1.454.743-2.936.952-4.442zm29.372-9.293h-29.381c-.209-1.543-.539-3.016-.943-4.447l38.07-15.199c-3.322 6.287-6.64 12.75-7.746 19.646zm13.559-31.969-47.6 19c-1.324-2.142-2.862-4.103-4.53-5.92l41.011-38.065c1.459.651 2.848 1.454 4.131 2.505 9.13 7.504 9.976 14.116 6.988 22.48zm-90.977-54.152c-4.67-11.617-11.421-21.482-19.516-27.355 6.148-9.247 13.485-14.479 20.524-14.479 6.756 0 13.828 4.846 19.832 13.443-8.926 5.822-16.04 16.435-20.84 28.391zm-4.609 16.147c.014.079.037.149.051.228 1.496 6.436 2.374 13.215 2.374 20.041 0 1.338-.093 2.621-.163 3.913-10.032-7.365-25.789-17.815-45.644-27.294l-13.327-13.327c6.742-14.539 16.319-23.512 25.482-23.512 13.123.003 26.022 17.833 31.227 39.951zm2.825 36.248c.144.116.321.204.469.316.112.079.218.158.335.228 2.63 1.993 5.525 3.75 8.578 5.358.372.246.748.446 1.166.576 1.417.711 2.779 1.487 4.275 2.114 9.725 4.057 26.049 13.322 26.049 29.78 0 2.746-.507 5.39-1.408 7.936l-62.079-62.079c10.032 6.287 17.824 12.012 22.615 15.771zm113.206-8.568c.771 8.336-1.533 16.129-6.319 21.384-3.211 3.522-7.384 5.683-12.174 6.468.237-.446.469-.892.706-1.338 1.784-3.373 3.676-6.961 5.195-10.697.051-.107.084-.214.121-.325 4.34-10.873 5.353-22.978-9.052-34.827-3.926-3.229-8.304-5.07-12.932-5.901-2.746-14.344-8.819-28.767-17.272-38.73l5.167-102.482c.627-13.982 3.94-25.524 9.856-34.302 1.436-2.128.869-5.018-1.259-6.45s-5.018-.869-6.45 1.259c-6.877 10.218-10.724 23.363-11.426 39.051l-4.777 94.787c-4.596-3.057-9.637-4.823-15.023-4.823-2.198 0-4.317.33-6.38.864-8.016-12.174-17.978-18.893-28.391-18.893-10.594 0-20.678 6.91-28.754 19.442-2.611-.883-5.302-1.413-8.09-1.413-12.286 0-24.116 9.54-32.466 25.822l-38.516-38.516v-66.415l57.749-57.749h136.705c5.711 6.38 8.708 13.35 9.331 21.816zm-251.449-122.825 23.916-23.916v47.833zm229.726-120.567c3.936 0 7.258 4.651 7.258 10.158 0 5.506-3.322 10.158-7.258 10.158s-7.258-4.651-7.258-10.158c0-2.565-2.082-4.647-4.647-4.647s-4.647 2.082-4.647 4.647c0 3.736.943 7.193 2.505 10.158h-115.427l20.315-20.315h109.159zm-187.971 10.153c0-5.506 3.322-10.158 7.258-10.158h7.523l-14.144 14.144c-.391-1.245-.637-2.578-.637-3.986zm-80.085-47.693c16.366 16.621 24.325 32.745 24.325 49.292v58.785l-18.01 18.01-174.859-174.854h154.645v15.487c-.004 12.36 4.935 24.177 13.899 33.28zm-9.256-81.791c6.543 0 11.863 5.325 11.863 11.868s-5.325 11.863-11.863 11.863h-168.581l-23.73-23.73h192.311zm-234.782 131.082c0-16.551 7.955-32.671 24.325-49.292 6.482-6.58 10.822-14.581 12.746-23.159l181.262 181.262-147.081 147.09c-1.199-.99-2.458-1.891-3.787-2.69-15.376-9.279-43.767-14.502-53.269-1.566-1.213 1.654-2.314 3.68-3.211 5.72-3.727-.59-7.444-.813-10.98-.59v-256.775zm14.493 312.655c-1.287-.214-2.584-.414-3.778-.73 1.77-7.026 4.623-13.066 8.633-18.02.432.544.878 1.087 1.306 1.626 1.65 2.1 3.299 4.07 5.023 5.934zm-4.219-46.053c-2.133 1.389-4.131 2.904-5.976 4.572-4.707-1.603-9.107-2.291-12.736-2.528 3.875-2.727 11.007-3.345 18.712-2.044zm9.6 13.936c-1.873-1.784-3.945-3.48-6.329-5 2.774-2.031 5.938-3.708 9.396-5.111 1.691.757 3.341 1.598 4.898 2.542.646.39 1.222.874 1.826 1.324-3.593 1.737-6.808 3.875-9.791 6.245zm13.512-14.99c-.26-.167-.479-.376-.743-.539-2.295-1.385-4.893-2.639-7.648-3.754-.13-.065-.26-.107-.395-.158-1.417-.562-2.862-1.092-4.354-1.561.455-.869.943-1.705 1.445-2.388 3.239-4.414 13.327-4.758 23.559-2.551-4.62 2.986-8.579 6.648-11.864 10.951zm-35.895 13.349c-3.22 4.586-5.697 9.874-7.453 15.822-3.118-5.957-4.038-11.868-3.267-16.83 2.476-.107 6.273-.014 10.72 1.008zm.343 26.096c-.191-.181-.348-.367-.534-.553 1.524-9.005 4.586-16.384 9.261-22.183 2.477 1.315 4.586 2.937 6.496 4.712-5.042 5.873-8.712 13.02-10.994 21.272-1.524-.957-2.96-2.021-4.229-3.248zm34.386-10.06c-1.417-1.561-2.816-3.308-4.256-5.144-.609-.776-1.231-1.561-1.873-2.361 2.974-2.291 6.319-4.219 10.041-5.78.595 1.032 1.157 2.105 1.645 3.262.432 1.027.962 1.989 1.524 2.932zm13.954-13.959c-1.241-2.867-2.783-5.413-4.54-7.727-.13-.181-.228-.376-.381-.534-.256-.325-.483-.683-.748-.994 4.275-5.799 9.935-10.134 17.221-13.094 1.756.785 3.42 1.631 4.935 2.546.678.409 1.306.897 1.942 1.38zm-75.982 16.315c1.97-2.686 5.567-3.806 9.015-4.219.678 1.947 1.519 3.875 2.518 5.785-5.813 3.327-10.692 7.342-14.642 11.984-.558-5.363.623-10.163 3.109-13.55zm.418 24.632c3.727-6.115 9.196-11.194 16.291-15.176 1.087 1.352 2.268 2.667 3.531 3.95-6.621 6.333-11.454 12.495-14.646 18.624-2.137-2.426-3.847-4.912-5.176-7.398zm12.481 13.601c2.742-6.096 7.625-12.374 14.767-19.033 1.845 1.101 3.81 2.054 5.901 2.862.209.07.386.204.613.246.042.009.088.005.13.014.748.27 1.492.544 2.263.781l-17.792 17.792c-2.128-.715-4.089-1.603-5.882-2.662zm44.017 28.549 16.923-16.923c1.055.795 2.137 1.547 3.257 2.244.911.562 1.835 1.073 2.76 1.589-5.121 5.901-8.397 13.066-9.758 21.426-2.602-1.115-5.181-2.426-7.658-3.959-2.006-1.246-3.814-2.751-5.524-4.377zm93.403-93.403c.06.13.102.256.163.39 2.151 4.74 2.156 10.167.042 14.916-3.118-1.947-6.71-3.541-10.711-4.8zm-18.103 18.104c6.129 1.324 11.157 3.406 15.004 6.208-.455 1.654-.776 3.22-.98 4.707-6.51 2.439-12.402 6.835-17.049 12.704-2.374-4.391-5.446-8.318-9.131-11.468zm-23.029 60.922c-.009 0-.014 0-.023 0-2.314.042-4.781-.144-7.346-.576 3.034-4.949 6.124-9.168 9.303-12.783 3.164 4.377 5.836 8.499 7.574 11.282-2.548 1.329-5.823 2.007-9.508 2.077zm8.638-19.948c2.1-1.738 4.247-3.267 6.459-4.535.516 2.128.855 4.317.962 6.533.139 2.844-.121 5.474-.688 7.765-1.822-2.816-4.122-6.218-6.733-9.763zm-4.354-22.225c.079.065.181.116.26.181 2.867 2.379 5.26 5.395 7.137 8.773-3.044 1.636-5.966 3.629-8.796 5.952-2.11-2.5-4.303-4.879-6.519-6.989zm-14.493 14.493c2.142 2.007 4.284 4.349 6.361 6.845-4.456 4.846-8.699 10.738-12.815 17.746-3.573-1.31-7.142-3.002-10.529-5.102-.511-.316-.99-.678-1.482-1.022zm3.025 50.486c-4.331 4.391-13.276 5.214-22.978 2.89 1.059-8.322 4.256-14.999 9.67-20.273 1.589.599 3.178 1.115 4.767 1.575.014.005.028.009.046.014 4.149 1.199 8.252 1.901 12.174 2.119.266 5.859-1.049 11.007-3.679 13.675zm54.375-38.749c-4.019 4.061-12.397 5.176-21.979 3.104.167-1.794.228-3.648.135-5.571-.139-2.821-.576-5.604-1.241-8.318 3.429-6.082 8.248-10.79 13.763-13.517.302.748.66 1.464 1.083 2.128 2.388 3.722 6.464 6.529 11.919 8.341.293 5.929-1.054 11.171-3.68 13.833zm294.041-16.797c-20.431 16.04-75.197 53.348-142.216 53.348-65.89 0-108.044-34.943-123.113-49.966-4.224-4.215-9.865-6.937-16.305-7.871-6.426-.934-10.98-3.025-12.825-5.901-.627-.976-2.258-5.056 2.988-16.621 3.276-7.221 3.276-15.506 0-22.727-.576-1.264-1.069-2.481-1.519-3.662l26.728-26.728s.005 0 .005-.005c11.756-11.719 55.444-49.966 124.033-49.966 6.245 0 12.644.376 19.033 1.041l126.603 126.603c-1.163.796-2.32 1.595-3.412 2.455zm-146.937-152.801 13.67 13.67c-3.002-.144-5.999-.256-8.954-.256-7.003 0-13.684.479-20.185 1.176 1.427-6.979 6.24-13.536 15.246-14.577.07-.009.153-.009.223-.013zm-25.041 15.845c-21.691 3.466-40.296 10.325-55.528 18.076l57.242-57.242 15.678 15.678c-9.79 3.549-16.36 12.327-17.392 23.488zm264.335 210.308-259.33-259.335c-.874-.874-2.054-1.361-3.285-1.361s-2.416.488-3.285 1.361l-181.675 181.68c-.056.065-.135.098-.191.163-.009.014-.014.033-.023.046l-77.442 77.446-18.875-18.879 259.33-259.33c1.817-1.817 1.817-4.754 0-6.57l-259.329-259.326 18.874-18.875 259.33 259.33c1.817 1.817 4.754 1.817 6.57 0l22.657-22.657 50.811-50.811s.005 0 .005-.005 0-.005.005-.005l26.286-26.286.009-.009 159.558-159.557 18.875 18.875-224.197 224.191-35.133 35.133c-1.817 1.817-1.817 4.754 0 6.57l79.658 79.658.023.023 179.649 179.649z"></path></g></g></svg>