<!-- icon666.com - MILLIONS vector ICONS FREE --><svg id="Capa_1" enable-background="new 0 0 512 512" viewBox="0 0 512 512" xmlns="http://www.w3.org/2000/svg"><g><g><path d="m274.183 215.345h14.143c4.143 0 7.5-3.358 7.5-7.5s-3.357-7.5-7.5-7.5h-14.143c-4.143 0-7.5 3.358-7.5 7.5s3.357 7.5 7.5 7.5z"></path><path d="m223.675 215.345h14.142c4.142 0 7.5-3.358 7.5-7.5s-3.358-7.5-7.5-7.5h-14.142c-4.142 0-7.5 3.358-7.5 7.5s3.358 7.5 7.5 7.5z"></path><path d="m501.9 382.532v-156.622c0-3.429-.454-6.888-1.356-10.312l-23.099-86.178c-1.807-6.746-5.372-12.923-10.312-17.864l-40.811-40.81c-5.157-5.159-12.295-8.117-19.583-8.117h-4.95c-4.143 0-7.5 3.358-7.5 7.5s3.357 7.5 7.5 7.5h4.95c3.339 0 6.61 1.357 8.976 3.723l40.811 40.81c3.08 3.08 5.303 6.931 6.43 11.139l23.092 86.15c.565 2.146.853 4.319.853 6.458v154.92h-73.62v-102.459c0-1.988-.789-3.895-2.194-5.301l-10.354-10.363c-3.115-3.115-4.902-7.429-4.902-11.836v-14.6c0-3.3-2.157-6.213-5.314-7.174l-35.648-10.859c-4.461-1.361-7.335-5.567-6.987-10.231.381-5.134 4.923-9.155 10.34-9.155h58.86c10.818 0 19.62-8.802 19.62-19.62v-37.48c0-4.042-1.293-8.084-3.64-11.379l-20.773-29.18c-3.669-5.173-9.646-8.261-15.987-8.261h-40.8c-2.116 0-4.085-.844-5.544-2.375-1.453-1.524-2.196-3.528-2.094-5.656.187-4.008 3.806-7.269 8.067-7.269h10.86c4.143 0 7.5-3.358 7.5-7.5s-3.357-7.5-7.5-7.5h-10.86c-10.071 0-18.654 6.289-21.795 15.153h-55.482v-12.705c0-8.872-6.605-16.212-15.152-17.411v-40.168c0-4.142-3.357-7.5-7.5-7.5-4.142 0-7.5 3.358-7.5 7.5v40.168c-8.547 1.198-15.152 8.538-15.152 17.411v12.704h-55.484c-3.144-8.867-11.726-15.153-21.794-15.153h-50.81c-7.287 0-14.425 2.958-19.583 8.117l-40.81 40.81c-4.939 4.939-8.504 11.116-10.311 17.861l-23.107 86.209c-.895 3.391-1.348 6.851-1.348 10.283v76.96c0 4.142 3.358 7.5 7.5 7.5s7.5-3.358 7.5-7.5v-76.96c0-2.142.287-4.314.844-6.428l23.1-86.182c1.126-4.207 3.35-8.058 6.429-11.137l40.81-40.81c2.366-2.366 5.638-3.723 8.977-3.723h50.81c4.262 0 7.881 3.261 8.069 7.282.102 2.115-.642 4.119-2.094 5.643-1.46 1.532-3.429 2.375-5.544 2.375h-40.8c-6.341 0-12.318 3.088-15.98 8.25l-20.779 29.189c-2.348 3.297-3.641 7.338-3.641 11.381v37.48c0 10.818 8.802 19.62 19.62 19.62h58.86c5.417 0 9.959 4.021 10.341 9.157.347 4.662-2.526 8.868-6.986 10.229l-35.65 10.86c-3.157.961-5.314 3.874-5.314 7.174v14.6c0 4.406-1.787 8.72-4.906 11.839l-10.35 10.36c-1.405 1.407-2.194 3.313-2.194 5.301v102.461h-73.625v-42.961c0-4.142-3.358-7.5-7.5-7.5s-7.5 3.358-7.5 7.5v44.664c-5.959 2.823-10.1 8.879-10.1 15.899v30.305c0 7.021 4.142 13.077 10.102 15.9v59.862c0 4.142 3.358 7.5 7.5 7.5h88.622c4.142 0 7.5-3.358 7.5-7.5v-59.862c5.96-2.823 10.102-8.879 10.102-15.9v-7.652h16.587c3.103 8.815 11.508 15.152 21.371 15.152h30.305c9.863 0 18.268-6.338 21.371-15.152h21.172c3.103 8.815 11.508 15.152 21.371 15.152 9.862 0 18.268-6.338 21.371-15.152h21.172c3.103 8.815 11.509 15.152 21.371 15.152h30.305c9.862 0 18.268-6.338 21.371-15.152h16.591v7.655c0 7.018 4.14 13.073 10.097 15.896v59.863c0 4.142 3.357 7.5 7.5 7.5h88.622c4.143 0 7.5-3.358 7.5-7.5v-59.861c5.959-2.823 10.102-8.878 10.102-15.899v-30.31c-.005-7.02-4.146-13.075-10.105-15.898zm-160.168-192.669c2.885-3.802 4.601-8.536 4.601-13.666 0-3.577-.836-6.961-2.319-9.971 3.011 1.483 6.395 2.319 9.971 2.319 3.577 0 6.961-.836 9.972-2.319-1.483 3.011-2.319 6.395-2.319 9.972 0 2.685.475 5.261 1.337 7.653h-4.756c-6.251-.001-12.029 2.263-16.487 6.012zm4.601-43.971c0-4.22 3.433-7.652 7.652-7.652s7.653 3.433 7.653 7.652-3.434 7.653-7.653 7.653-7.652-3.433-7.652-7.653zm37.958 37.958c-4.22 0-7.652-3.433-7.652-7.652s3.433-7.652 7.652-7.652 7.652 3.433 7.652 7.652-3.432 7.652-7.652 7.652zm-135.943-118.771c0-1.435 1.167-2.602 2.602-2.602h10.102c1.435 0 2.602 1.167 2.602 2.602v12.704h-15.305v-12.704zm-94.568 118.771h-26.061c-.003 0-.006 0-.01 0-2.041 0-3.957-.795-5.415-2.258-1.443-1.438-2.238-3.354-2.238-5.395 0-4.22 3.433-7.652 7.652-7.652h15.152c4.142 0 7.5-3.358 7.5-7.5v-15.153c0-2.041.795-3.957 2.258-5.414 1.438-1.443 3.354-2.238 5.395-2.238 4.22 0 7.652 3.433 7.652 7.652v15.153c0 4.142 3.358 7.5 7.5 7.5h15.153c2.041 0 3.957.795 5.414 2.257 1.444 1.439 2.239 3.355 2.239 5.396 0 4.22-3.433 7.652-7.652 7.652h-15.153c-2.694 0-5.05 1.425-6.372 3.558-3.823-2.256-8.281-3.558-13.014-3.558zm-31.907 89.463c5.908-5.908 9.297-14.088 9.297-22.443v-9.044l30.337-9.242c7.239-2.208 12.798-7.398 15.61-13.942 2.317-3.623 3.55-7.793 3.55-12.141v-7.652h7.653c12.491 0 22.652-10.162 22.652-22.652 0-6.058-2.362-11.747-6.632-16.002-4.273-4.289-9.962-6.65-16.02-6.65h-7.653v-7.653c0-12.491-10.162-22.652-22.652-22.652-6.058 0-11.748 2.362-16.001 6.632-4.289 4.273-6.651 9.962-6.651 16.021v7.653h-7.652c-12.491 0-22.652 10.162-22.652 22.652 0 2.655.479 5.229 1.348 7.653h-11.487c-2.547 0-4.62-2.073-4.62-4.62v-37.48c0-.95.305-1.901.86-2.68l20.788-29.2c.861-1.214 2.264-1.939 3.753-1.939h40.8c6.169 0 12.148-2.562 16.403-7.028 2.26-2.371 3.935-5.132 4.981-8.12h156.233c1.046 2.989 2.721 5.749 4.98 8.12 4.256 4.466 10.234 7.027 16.403 7.027h40.8c1.489 0 2.892.725 3.76 1.949l20.781 29.192c.555.777.859 1.729.859 2.679v37.48c0 2.547-2.072 4.62-4.62 4.62h-11.475c.862-2.392 1.338-4.967 1.338-7.653 0-12.491-10.162-22.652-22.652-22.652-3.577 0-6.96.836-9.971 2.319 1.483-3.011 2.319-6.395 2.319-9.972 0-12.491-10.162-22.652-22.653-22.652-12.49 0-22.652 10.162-22.652 22.652 0 3.577.836 6.961 2.319 9.972-3.011-1.483-6.395-2.319-9.971-2.319-12.49 0-22.652 10.162-22.652 22.652s10.162 22.652 22.652 22.652c5.44 0 10.438-1.929 14.347-5.137-2.886 3.713-4.74 8.24-5.107 13.18-.872 11.706 6.354 22.27 17.573 25.692l30.336 9.241v9.044c0 8.355 3.389 16.536 9.294 22.44l8.156 8.164v68.454c-2.229.392-4.497.597-6.787.597-17.286 0-32.237-11.123-37.203-27.677l-17.5-58.339h17.195c4.143 0 7.5-3.358 7.5-7.5s-3.357-7.5-7.5-7.5h-195.973c-4.142 0-7.5 3.358-7.5 7.5s3.358 7.5 7.5 7.5h17.195l-17.499 58.339c-2.417 8.055-7.263 14.971-14.011 19.998-6.754 5.024-14.773 7.68-23.192 7.68-2.29 0-4.557-.205-6.787-.597v-68.455zm209.46-97.116c0 4.22-3.433 7.652-7.652 7.652s-7.652-3.433-7.652-7.652 3.433-7.652 7.652-7.652 7.652 3.433 7.652 7.652zm-75.333 174.329c-4.22 0-7.652-3.433-7.652-7.652v-30.305c0-4.22 3.433-7.652 7.652-7.652s7.652 3.433 7.652 7.652v30.305c0 4.22-3.432 7.652-7.652 7.652zm-238.398 80.813c-1.435 0-2.602-1.167-2.602-2.602v-30.305c0-1.435 1.167-2.602 2.602-2.602h88.622c1.435 0 2.602 1.167 2.602 2.602v30.305c0 1.435-1.167 2.602-2.602 2.602zm7.5 65.661v-50.661h73.622v50.661zm88.618-114.468v-17.437c2.243.282 4.507.431 6.787.431 11.668 0 22.783-3.681 32.148-10.647 9.356-6.969 16.072-16.554 19.422-27.72l18.792-62.649h57.631v26.688c-8.815 3.103-15.152 11.508-15.152 21.371v30.305c0 9.863 6.338 18.268 15.152 21.371v27.97c-6.466 2.276-11.595 7.405-13.871 13.871h-21.172c-3.103-8.815-11.508-15.152-21.371-15.152h-30.305c-9.863 0-18.268 6.338-21.371 15.152h-16.587v-7.652c.002-7.023-4.141-13.08-10.103-15.902zm78.367 38.706h-30.305c-4.22 0-7.652-3.433-7.652-7.652s3.433-7.652 7.652-7.652h30.305c4.22 0 7.652 3.433 7.652 7.652s-3.432 7.652-7.652 7.652zm63.913 0c-4.22 0-7.652-3.433-7.652-7.652s3.433-7.652 7.652-7.652 7.652 3.433 7.652 7.652-3.432 7.652-7.652 7.652zm94.218 0h-30.305c-4.22 0-7.652-3.433-7.652-7.652s3.433-7.652 7.652-7.652h30.305c4.22 0 7.652 3.433 7.652 7.652s-3.432 7.652-7.652 7.652zm21.37-15.153c-3.103-8.815-11.509-15.152-21.371-15.152h-30.305c-9.862 0-18.268 6.338-21.371 15.152h-21.172c-2.276-6.466-7.405-11.595-13.871-13.871v-27.97c8.815-3.103 15.152-11.508 15.152-21.371v-30.305c0-9.862-6.338-18.268-15.152-21.371v-26.687h57.631l18.792 62.649c6.884 22.948 27.608 38.367 51.57 38.367 2.279 0 4.544-.149 6.787-.431v17.437c-5.959 2.823-10.101 8.879-10.101 15.898v7.655zm41.688 90.915v-50.66h32.193c4.143 0 7.5-3.358 7.5-7.5s-3.357-7.5-7.5-7.5h-39.684c-.003 0-.006 0-.01 0 0 0 0 0-.001 0-1.432-.003-2.596-1.167-2.596-2.599v-30.31c0-1.434 1.167-2.6 2.601-2.6h88.62c1.434 0 2.6 1.167 2.6 2.6v30.31c0 1.433-1.165 2.598-2.597 2.599-.002 0-.003 0-.005 0-.003 0-.006 0-.01 0h-13.917c-4.143 0-7.5 3.358-7.5 7.5s3.357 7.5 7.5 7.5h6.429v50.66z"></path></g></g></svg>