<!-- icon666.com - MILLIONS vector ICONS FREE --><svg id="Layer_1" viewBox="0 0 512 512" xmlns="http://www.w3.org/2000/svg" data-name="Layer 1"><g id="_340411696" data-name=" 340411696"><path d="m340.21 489h-110.75a28.55 28.55 0 0 1 -28.52-28.51v-36.05a12.52 12.52 0 0 0 -12.51-12.51h-54.43a28.55 28.55 0 0 1 -28.52-28.51v-61.42a12.52 12.52 0 0 0 -12.48-12.53h-11.56a28.52 28.52 0 0 1 -25.95-40.33c15.64-34.34 27.57-61.75 38.73-102 12.29-44.33 33.87-79.52 64.15-104.59 26.9-22.26 60.21-35.69 96.33-38.82 37.61-3.27 77.11 4.82 111.24 22.78 35 18.42 62.8 46.54 78.33 79.2 15.83 33.29 19.05 71.29 9.32 109.7-11 43.32-37.78 87.22-79.71 130.46a11.5 11.5 0 0 0 -1.7 2.16c-19.27 31.41-13.65 61.77-5.54 81.71a28.51 28.51 0 0 1 -26.43 39.26zm-68.9-450q-7.6 0-15.22.66c-71.59 6.21-125 54.23-146.46 131.75-11.44 41.29-24.15 70.48-39.58 104.36a12.52 12.52 0 0 0 11.39 17.7h11.56a28.54 28.54 0 0 1 28.48 28.53v61.44a12.53 12.53 0 0 0 12.52 12.49h54.43a28.54 28.54 0 0 1 28.51 28.51v36.05a12.53 12.53 0 0 0 12.52 12.51h110.75a12.51 12.51 0 0 0 11.59-17.22c-9.49-23.36-16-59 6.73-96.1a27.22 27.22 0 0 1 3.86-4.95c74.87-77.22 98.82-156.12 67.43-222.16-26.56-55.87-91.57-93.57-158.51-93.57z"></path></g><path d="m278.09 313.41a8 8 0 0 1 -6-2.72l-89.95-102.11c-21.93-24.9-21.93-65.41 0-90.31 10.92-12.39 25.53-19.22 41.12-19.22s30.2 6.83 41.12 19.22l2.55 2.89a14.29 14.29 0 0 0 22.33 0l2.55-2.89c10.92-12.39 25.52-19.22 41.11-19.22s30.2 6.83 41.12 19.22c21.94 24.9 21.94 65.41 0 90.31l-89.94 102.11a8 8 0 0 1 -6.01 2.72zm-54.83-198.36c-10.93 0-21.27 4.9-29.11 13.8-16.8 19.07-16.8 50.09 0 69.15l83.94 95.3 83.91-95.3c16.79-19.06 16.79-50.08 0-69.15-7.84-8.9-18.18-13.8-29.12-13.8s-21.27 4.9-29.11 13.8l-2.55 2.89a30.27 30.27 0 0 1 -46.34 0l-2.54-2.89c-7.8-8.85-18.14-13.8-29.08-13.8z"></path></svg>