<!-- icon666.com - MILLIONS vector ICONS FREE --><svg id="Layer_1" enable-background="new 0 0 512.032 512.032" viewBox="0 0 512.032 512.032" xmlns="http://www.w3.org/2000/svg"><path d="m507.638 486.425-185.424-185.424h174.786c8.284 0 15-6.716 15-15v-60c0-8.284-6.716-15-15-15h-264.787l-206.606-206.607c-5.857-5.858-15.355-5.858-21.213 0s-5.858 15.355 0 21.213l185.394 185.393h-174.788c-8.284 0-15 6.716-15 15v60c0 8.284 6.716 15 15 15h264.788l206.637 206.637c5.857 5.858 15.355 5.858 21.213 0 5.858-5.857 5.858-15.354 0-21.212zm-403.638-215.424h-74v-30h74zm30 0v-30h85.787l30 30zm128.213-30.001h219.787v30h-189.786z"></path></svg>