<!-- icon666.com - MILLIONS vector ICONS FREE --><svg id="Capa_1" enable-background="new 0 0 512 512" viewBox="0 0 512 512" xmlns="http://www.w3.org/2000/svg"><g><path d="m458.009 161.292c0-88.937-72.355-161.292-161.293-161.292s-161.293 72.355-161.293 161.292c0 15.866 2.314 31.2 6.603 45.694-23.532 11.987-43.749 29.54-59.061 51.464-18.955 27.14-28.975 59.042-28.975 92.257.001 88.938 72.356 161.293 161.294 161.293 88.937 0 161.292-72.355 161.292-161.292 0-15.632-2.217-30.962-6.588-45.747 52.206-26.734 88.021-81.097 88.021-143.669zm-292.586 0c0-9.49 1.021-18.745 2.943-27.668h256.7c1.922 8.924 2.943 18.178 2.943 27.668s-1.021 18.745-2.943 27.669h-256.699c-1.922-8.924-2.944-18.178-2.944-27.669zm131.293-131.292c51.718 0 96.54 30.061 117.929 73.624h-235.858c21.39-43.563 66.212-73.624 117.929-73.624zm-189.156 245.628c11.951-17.111 27.565-30.948 45.698-40.662 11.952 23.179 29.358 43.105 50.511 58.072h-106.475c2.951-6.02 6.375-11.839 10.266-17.41zm239.016 75.08c0 9.49-1.021 18.745-2.943 27.668h-256.699c-1.922-8.924-2.943-18.178-2.943-27.668 0-9.394 1.006-18.653 2.937-27.669h256.734c1.937 9.032 2.914 18.281 2.914 27.669zm-131.292 131.292c-51.718 0-96.54-30.061-117.929-73.624h235.857c-21.389 43.563-66.212 73.624-117.928 73.624zm81.432-189.415c-51.717 0-96.54-30.061-117.929-73.624h235.858c-21.389 43.563-66.211 73.624-117.929 73.624z"></path></g></svg>