<!-- icon666.com - MILLIONS vector ICONS FREE --><svg id="Capa_1" enable-background="new 0 0 512 512" viewBox="0 0 512 512" xmlns="http://www.w3.org/2000/svg"><g><g><path d="m504.5 431.353h-33.917v-136.53h12.707c4.143 0 7.5-3.357 7.5-7.5v-90.91c0-4.143-3.357-7.5-7.5-7.5h-50.51c-4.143 0-7.5 3.357-7.5 7.5s3.357 7.5 7.5 7.5h43.01v45.61h-63.215c-4.143 0-7.5 3.357-7.5 7.5s3.357 7.5 7.5 7.5h63.215v15.3h-136.53v-45.605h113.722c4.143 0 7.5-3.357 7.5-7.5s-3.357-7.5-7.5-7.5h-113.722v-15.305h58.521c4.143 0 7.5-3.357 7.5-7.5s-3.357-7.5-7.5-7.5h-66.021c-4.143 0-7.5 3.357-7.5 7.5v83.415h-12.701c-4.143 0-7.5 3.357-7.5 7.5v144.024h-15.334c.007-.195.03-.385.03-.582v-14.142c0-6.662-4.21-12.345-10.104-14.569v-120.796c0-11.933-9.708-21.64-21.641-21.64h-44.194c3.524-6.852 5.696-14.347 6.353-22.099h5.068c15.028 0 27.254-12.227 27.254-27.255 0-9.529-4.919-17.925-12.347-22.799v-26.587c0-43.621-35.488-79.109-79.109-79.109s-79.109 35.488-79.109 79.109v26.588c-7.427 4.874-12.346 13.27-12.346 22.798 0 15.028 12.226 27.255 27.254 27.255h5.067c.656 7.755 2.826 15.25 6.349 22.099h-44.19c-11.933 0-21.64 9.707-21.64 21.64v44.48c0 4.143 3.357 7.5 7.5 7.5s7.5-3.357 7.5-7.5v-44.48c0-3.661 2.979-6.64 6.64-6.64h193.95c3.662 0 6.641 2.979 6.641 6.64v119.784h-207.231v-40.304c0-4.143-3.357-7.5-7.5-7.5s-7.5 3.357-7.5 7.5v41.316c-5.894 2.224-10.104 7.907-10.104 14.569v14.142c0 .197.022.387.03.582h-23.846c-4.143 0-7.5 3.357-7.5 7.5v30.301c0 4.143 3.357 7.5 7.5 7.5h3.612v27.847c0 4.143 3.357 7.5 7.5 7.5s7.5-3.357 7.5-7.5v-27.847h363.908c4.143 0 7.5-3.357 7.5-7.5s-3.357-7.5-7.5-7.5h-375.02v-15.301h482v15.301h-71.98c-4.143 0-7.5 3.357-7.5 7.5s3.357 7.5 7.5 7.5h60.869v27.847c0 4.143 3.357 7.5 7.5 7.5s7.5-3.357 7.5-7.5v-27.847h3.611c4.143 0 7.5-3.357 7.5-7.5v-30.301c0-4.142-3.357-7.499-7.5-7.499zm-280.264-208.829h-4.847v-24.509h4.847c6.757 0 12.254 5.497 12.254 12.254 0 6.758-5.497 12.255-12.254 12.255zm-64.202-125.75c35.35 0 64.109 28.76 64.109 64.109v22.132h-11.038c-13.785-4.813-17.685-18.524-17.834-19.073-.699-2.696-2.834-4.784-5.547-5.421-2.712-.639-5.553.282-7.379 2.387-7.371 8.495-22.311 15.016-43.203 18.857-15.779 2.902-29.549 3.223-30.928 3.249-.012 0-.023-.002-.035-.002-.02 0-.038.003-.058.003h-12.196v-22.132c0-35.349 28.76-64.109 64.109-64.109zm-76.455 113.496c0-6.757 5.497-12.254 12.254-12.254h4.847v24.509h-4.847c-6.757-.001-12.254-5.498-12.254-12.255zm32.101 22.223v-2.469-32.318c14.999-.932 49.021-4.659 69.698-19.505 3.543 5.957 9.493 13.059 19.012 17.447v34.376 2.469c0 9.87-3.28 19.382-9.278 27.13h-70.154c-5.998-7.739-9.278-17.25-9.278-27.13zm203.379 153.249h113.72c4.143 0 7.5-3.357 7.5-7.5s-3.357-7.5-7.5-7.5h-113.72v-45.609h113.72c4.143 0 7.5-3.357 7.5-7.5s-3.357-7.5-7.5-7.5h-113.72v-15.305h136.524v106.219h-113.719c-4.143 0-7.5 3.357-7.5 7.5s3.357 7.5 7.5 7.5h113.719v15.306h-136.524zm-272.163 45.611c-.32 0-.581-.261-.581-.582v-14.142c0-.321.261-.582.581-.582h226.276c.32 0 .581.261.581.582v14.142c0 .321-.261.582-.581.582z"></path><path d="m156.556 44.27c-3.451 2.442-9.229 6.53-9.229 14.7 0 4.143 3.357 7.5 7.5 7.5s7.5-3.357 7.5-7.5c0-.052.003-.087.001-.096.309-.531 1.922-1.674 2.893-2.36 3.451-2.442 9.229-6.53 9.229-14.7s-5.777-12.258-9.229-14.7c-.985-.697-2.635-1.864-2.886-2.326 0-.001-.008-.04-.008-.13 0-.052.003-.086.001-.096.309-.531 1.922-1.673 2.892-2.359 3.452-2.442 9.229-6.53 9.229-14.699 0-4.143-3.357-7.5-7.5-7.5s-7.5 3.357-7.5 7.5c0 .052-.003.086-.001.096-.309.531-1.922 1.673-2.892 2.359-3.452 2.442-9.229 6.53-9.229 14.699 0 8.17 5.777 12.258 9.229 14.7.985.697 2.635 1.864 2.886 2.326 0 .001.008.04.008.13 0 .052-.003.087-.001.096-.309.53-1.923 1.673-2.893 2.36z"></path><path d="m202.347 54.854c-3.451 2.442-9.229 6.53-9.229 14.7 0 4.143 3.357 7.5 7.5 7.5s7.5-3.357 7.5-7.5c0-.052.003-.087.001-.096.309-.531 1.922-1.674 2.893-2.36 3.451-2.442 9.229-6.53 9.229-14.7s-5.777-12.259-9.229-14.701c-.985-.697-2.635-1.864-2.886-2.326 0-.001-.008-.04-.008-.13 0-.052.003-.086.001-.096.309-.531 1.922-1.673 2.892-2.359 3.452-2.442 9.229-6.53 9.229-14.699 0-4.143-3.357-7.5-7.5-7.5s-7.5 3.357-7.5 7.5c0 .052-.003.086-.001.096-.309.531-1.922 1.673-2.892 2.359-3.452 2.442-9.229 6.53-9.229 14.699s5.776 12.258 9.229 14.7c.985.697 2.635 1.865 2.886 2.327 0 0 .008.04.008.13 0 .052-.003.087-.001.096-.309.531-1.923 1.674-2.893 2.36z"></path><path d="m110.764 54.854c-3.451 2.442-9.229 6.53-9.229 14.7 0 4.143 3.357 7.5 7.5 7.5s7.5-3.357 7.5-7.5c0-.052.003-.087.001-.096.309-.531 1.922-1.674 2.893-2.36 3.451-2.442 9.229-6.53 9.229-14.7s-5.777-12.259-9.229-14.701c-.985-.697-2.635-1.864-2.886-2.326 0-.001-.008-.04-.008-.13 0-.052.003-.086.001-.096.309-.531 1.922-1.673 2.892-2.359 3.452-2.442 9.229-6.53 9.229-14.699 0-4.143-3.357-7.5-7.5-7.5s-7.5 3.357-7.5 7.5c0 .052-.003.086-.001.096-.309.531-1.922 1.673-2.892 2.359-3.452 2.442-9.229 6.53-9.229 14.699s5.776 12.258 9.229 14.7c.985.697 2.635 1.865 2.886 2.327 0 0 .008.04.008.13 0 .052-.003.087-.001.096-.309.531-1.923 1.674-2.893 2.36z"></path><path d="m362.067 340.437h-20.203c-4.143 0-7.5 3.357-7.5 7.5s3.357 7.5 7.5 7.5h20.203c4.143 0 7.5-3.357 7.5-7.5s-3.357-7.5-7.5-7.5z"></path><path d="m432.778 340.437h-40.406c-4.143 0-7.5 3.357-7.5 7.5s3.357 7.5 7.5 7.5h40.406c4.143 0 7.5-3.357 7.5-7.5s-3.357-7.5-7.5-7.5z"></path><path d="m362.067 249.523c-4.143 0-7.5 3.357-7.5 7.5s3.357 7.5 7.5 7.5h20.203c4.143 0 7.5-3.357 7.5-7.5s-3.357-7.5-7.5-7.5z"></path><path d="m263.637 136.877c13.463 10.396 29.588 15.89 46.63 15.89 20.92 0 40.443-8.292 54.974-23.348 14.524-15.05 22.114-34.873 21.37-55.82-1.369-38.558-31.376-70.087-69.797-73.341-1.507-.127-3.031-.212-4.532-.25-5.585-.189-10.493 3.092-12.539 8.248-2.054 5.176-.685 10.931 3.487 14.66 11.49 10.273 17.79 25.007 17.286 40.423-.871 26.619-22.376 48.611-48.948 50.065l-.49.024c-5.57.255-10.252 3.85-11.928 9.156-1.671 5.289.09 10.899 4.487 14.293zm71.871-73.048c.593-18.126-6.117-35.522-18.546-48.488 30.186 3.255 53.574 28.285 54.658 58.791.598 16.841-5.501 32.776-17.173 44.87-11.679 12.101-27.369 18.765-44.181 18.765-11.972 0-23.378-3.372-33.283-9.799 32.122-4.038 57.453-31.369 58.525-64.139z"></path></g></g></svg>