<!-- icon666.com - MILLIONS vector ICONS FREE --><svg id="Layer_1" enable-background="new 0 0 480 480" viewBox="0 0 480 480" xmlns="http://www.w3.org/2000/svg"><g><path d="m216.854 236.428c-1.72-4.068-6.417-5.976-10.483-4.252-4.07 1.721-5.974 6.414-4.253 10.483 6.677 15.799-4.996 33.341-22.118 33.341-13.233 0-24-10.767-24-24s10.767-24 24-24c4.418 0 8-3.582 8-8s-3.582-8-8-8c-22.056 0-40 17.944-40 40s17.944 40 40 40c28.587 0 47.967-29.291 36.854-55.572z"></path><path d="m188 325c0-4.418-3.582-8-8-8s-8 3.582-8 8v22c0 4.418 3.582 8 8 8s8-3.582 8-8z"></path><path d="m180 377c-4.418 0-8 3.582-8 8v6c0 4.418 3.582 8 8 8s8-3.582 8-8v-6c0-4.418-3.582-8-8-8z"></path><path d="m368.688 323.721c-3.255-2.987-8.315-2.769-11.304.487-2.986 3.256-2.769 8.316.487 11.304 12.157 11.151 19.129 27.002 19.129 43.488 0 32.532-26.468 59-59 59s-59-26.468-59-59 26.468-59 59-59c6.003 0 9.046.825 10.705.887 4.133.143 7.479-2.794 8.158-6.542.19-1.016.137 4.344.137-124.345 0-17.645-14.355-32-32-32h-56v-66c0-13.233-10.767-24-24-24h-65v-44c0-4.411 3.589-8 8-8h24c4.411 0 8 3.589 8 8v15.968c0 4.418 3.582 8 8 8s8-3.582 8-8v-15.968c0-13.233-10.767-24-24-24h-24c-13.233 0-24 10.767-24 24v44h-9c-13.233 0-24 10.767-24 24v42.032c0 4.418 3.582 8 8 8s8-3.582 8-8v-9.032h45v12.129c0 4.418 3.582 8 8 8s8-3.582 8-8v-12.129h21.903c4.418 0 8-3.582 8-8s-3.582-8-8-8h-82.903v-17c0-4.411 3.589-8 8-8h90c4.411 0 8 3.589 8 8v66h-114c-17.645 0-32 14.355-32 32v258c0 17.645 14.355 32 32 32h173.354c4.418 0 8-3.582 8-8s-3.582-8-8-8h-173.354c-8.822 0-16-7.178-16-16v-258c0-8.822 7.178-16 16-16h186c8.822 0 16 7.178 16 16v114.062c-42.481-1.701-78 32.39-78 74.938 0 41.355 33.645 75 75 75s75-33.645 75-75c0-20.957-8.861-41.105-24.312-55.279z"></path><path d="m318 367.686-13.98-13.98c-3.125-3.123-8.189-3.123-11.314 0-3.124 3.125-3.124 8.189 0 11.314l13.98 13.98-13.98 13.98c-3.124 3.125-3.124 8.189 0 11.314 3.126 3.124 8.189 3.123 11.314 0l13.98-13.98 13.98 13.98c3.126 3.124 8.189 3.123 11.314 0 3.124-3.125 3.124-8.189 0-11.314l-13.98-13.98 13.98-13.98c3.124-3.125 3.124-8.189 0-11.314-3.125-3.123-8.189-3.123-11.314 0z"></path></g></svg>