<!-- icon666.com - MILLIONS vector ICONS FREE --><svg id="Icon" viewBox="0 0 250 250" xmlns="http://www.w3.org/2000/svg"><g fill="rgb(0,0,0)"><path d="m125.13 175c-54 0-72.53-11.36-73.3-11.84a2 2 0 0 1 2.17-3.39c.18.11 18.55 11.22 71.16 11.22s70.71-11.1 70.89-11.21a2 2 0 0 1 2.16 3.36c-.78.49-19.04 11.86-73.08 11.86z"></path><path d="m125 233a2 2 0 0 1 -2-2c0-38.58-77.36-46.18-78.15-46.25a2 2 0 0 1 .37-4c3 .28 67.52 6.63 79.78 39.1 12.26-32.47 76.76-38.82 79.78-39.1a2 2 0 0 1 .37 4c-.79.07-78.15 7.67-78.15 46.25a2 2 0 0 1 -2 2z"></path><path d="m125 243.3a2 2 0 0 1 -2-2v-10.3a2 2 0 0 1 4 0v10.3a2 2 0 0 1 -2 2z"></path><path d="m125 138a2 2 0 1 1 0-4 1.85 1.85 0 1 0 0-3.7 2 2 0 0 1 0-4 5.85 5.85 0 1 1 0 11.7z"></path><path d="m34.81 235.52a1.87 1.87 0 0 1 -.4 0 2 2 0 0 1 -1.56-2.36l10.54-52.31a65.62 65.62 0 0 1 7.79-20.36l9.22-15.66a62 62 0 0 0 -2.27-66.22 65.53 65.53 0 0 1 -10.13-23.61l-9.61-45.89a2 2 0 0 1 3.92-.82l9.69 45.85a61.41 61.41 0 0 0 9.47 22.17 66 66 0 0 1 2.41 70.51l-9.21 15.66a61.64 61.64 0 0 0 -7.32 19.12l-10.58 52.31a2 2 0 0 1 -1.96 1.61z"></path><path d="m215.19 235.52a2 2 0 0 1 -2-1.61l-10.5-52.31a61.74 61.74 0 0 0 -7.32-19.12l-9.21-15.66a66 66 0 0 1 2.41-70.51 61.41 61.41 0 0 0 9.43-22.17l9.65-45.85a2 2 0 0 1 2.37-1.55 2 2 0 0 1 1.55 2.37l-9.57 45.89a65.53 65.53 0 0 1 -10.09 23.61 62 62 0 0 0 -2.27 66.22l9.22 15.66a65.62 65.62 0 0 1 7.79 20.36l10.54 52.31a2 2 0 0 1 -1.56 2.36 1.87 1.87 0 0 1 -.44 0z"></path><path d="m84.14 94.63a2.09 2.09 0 0 1 -.55-.08c-22-6.26-28.43-20.63-28.69-21.24a2 2 0 1 1 3.67-1.59c.06.15 6 13.28 26.12 19a2 2 0 0 1 -.55 3.92z"></path><path d="m91.88 172.29a2 2 0 0 1 -1.6-.8c-10.28-13.7-10.36-30.8-10.36-31.49a2 2 0 0 1 2-2 2 2 0 0 1 2 2c0 .16.08 16.51 9.56 29.1a2 2 0 0 1 -1.6 3.21z"></path><path d="m158.12 172.29a2 2 0 0 1 -1.6-3.21c9.48-12.59 9.56-28.94 9.56-29.1a2 2 0 0 1 2-2 2 2 0 0 1 2 2c0 .72-.06 17.82-10.36 31.52a2 2 0 0 1 -1.6.79z"></path><path d="m236 113.05h-46.67a2 2 0 0 1 0-4h46.67a2 2 0 0 1 0 4z"></path><path d="m208.31 125.71a2 2 0 0 1 -1.11-.34l-19-12.66a2 2 0 0 1 0-3.33l19-12.66a2 2 0 0 1 2.22 3.33l-16.48 11 16.48 11a2 2 0 0 1 -1.11 3.67z"></path><path d="m60.67 113.05h-46.67a2 2 0 0 1 0-4h46.67a2 2 0 0 1 0 4z"></path><path d="m41.69 125.71a2 2 0 0 1 -1.11-3.71l16.49-11-16.49-11a2 2 0 0 1 2.22-3.33l19 12.66a2 2 0 0 1 0 3.33l-19 12.66a2 2 0 0 1 -1.11.39z"></path></g></svg>